<svg width="512" height="512" viewBox="0 0 512 512" xmlns="http://www.w3.org/2000/svg">
  <rect x="0" y="0" width="512" height="512" rx="102" fill="#0a0f18"/>
  <circle cx="51" cy="38" r="2.5" fill="#ffffff" opacity="0.5"/>
  <circle cx="435" cy="51" r="2" fill="#ffffff" opacity="0.4"/>
  <circle cx="474" cy="154" r="1.8" fill="#ffffff" opacity="0.3"/>
  <circle cx="38" cy="410" r="2.3" fill="#ffffff" opacity="0.4"/>
  <circle cx="461" cy="435" r="2.5" fill="#ffffff" opacity="0.3"/>
  <circle cx="192" cy="26" r="1.8" fill="#4a9eff" opacity="0.4"/>
  <circle cx="397" cy="474" r="2" fill="#4a9eff" opacity="0.3"/>
  <rect x="0" y="0" width="512" height="512" rx="102" fill="none" stroke="#1a2a3a" stroke-width="10"/>
  <g transform="translate(256,256) rotate(45) scale(16.64)">
    <path d="M21 16v-2l-8-5V3.5c0-.83-.67-1.5-1.5-1.5S10 2.67 10 3.5V9l-8 5v2l8-2.5V19l-2 1.5V22l3.5-1 3.5 1v-1.5L13 19v-5.5l8 2.5z" fill="#4a9eff" stroke="#4a9eff" stroke-width="0.3" stroke-linecap="round" stroke-linejoin="round" transform="translate(-12,-12)"/>
  </g>
</svg>
